<svg id="Ñëîé_1" data-name="Ñëîé 1" xmlns="http://www.w3.org/2000/svg" viewBox="0 0 397.62 150"><defs><style>.cls-1{fill:#fff;}.cls-2{fill:#ff0049;}</style></defs><path class="cls-1" d="M70,57.29h-.2A47.17,47.17,0,0,0,54.41,61a3.24,3.24,0,0,0-.49.26c-.91,0-2.59-.21-4-.39l-.27,0a2,2,0,0,0-2,2h0c1.38,0,2.76-.11,4.13-.24l1-.11h0A52.55,52.55,0,0,0,60.51,61a56.27,56.27,0,0,0,9.88-3.71Zm76.32-20a37.08,37.08,0,0,0-39.88-28.1L105.54,9a10.76,10.76,0,0,1,2.37-1.64,11.74,11.74,0,0,1,7.64-1.06C114.15,5.5,106.08.89,97.24,4a19.67,19.67,0,0,0-7,4.33c.32-.29-7.91-3.75-8.61-3.92C73,2.34,63.9,5,56.65,9.83a15.09,15.09,0,0,1,11.85.71,14.43,14.43,0,0,1,2.4,1.57A25.79,25.79,0,0,0,53,19.7c-5.3,5.23-8,12.52-12.92,18.1a48.61,48.61,0,0,1-7.82,7.11A19.82,19.82,0,0,0,42,46.1a18.24,18.24,0,0,0,3.67-.9,23.43,23.43,0,0,1-5.79,17.23c.46-.26,4.31.39,4.86.41h.1A4.88,4.88,0,0,1,49.68,58a4.4,4.4,0,0,1,.62,0c1.5.19,2.43.28,3,.33a49.74,49.74,0,0,1,16.31-3.88h.2c1-.06,2-.1,3-.1s1.82,0,2.73.08c.58-.36,1.16-.72,1.73-1.1C84,49,91.16,42.31,91.2,33.71a43.33,43.33,0,0,0,15.53,14.67,48.46,48.46,0,0,0,13.8,5.54A48.09,48.09,0,0,0,135.47,55a21.07,21.07,0,0,0-1.08-14.31,14.21,14.21,0,0,1,8,3.53,14.63,14.63,0,0,1,4.27,7.29A35.81,35.81,0,0,0,146.31,37.27Z"/><path class="cls-1" d="M138,60.83c-1.39.18-3.07.37-4,.39a3.24,3.24,0,0,0-.49-.26,47.17,47.17,0,0,0-15.38-3.66H118a46.94,46.94,0,0,0-18.27,2.5l-.07,0c-1.51.21-4.22.56-5.35.56-1.55,0-6.09-.66-6.41-.71h0a46.8,46.8,0,0,0-17.48-2.4l-.4,0h-.2A47.17,47.17,0,0,0,54.41,61a3.24,3.24,0,0,0-.49.26c-.91,0-2.59-.21-4-.39l-.27,0a2,2,0,0,0-2,2h0a2,2,0,0,0,1.76,2c.89.13,2,.26,2.94.35,0,12.1,8.63,20.92,17.19,21.71a14.67,14.67,0,0,0,2.3,0,19.43,19.43,0,0,0,13.16-7,23.11,23.11,0,0,0,5.57-15.17c0-.21,0-.42,0-.62,1.39.17,3,.34,3.74.34s1.91-.13,3.11-.27v.55A23.11,23.11,0,0,0,103,79.93a19.43,19.43,0,0,0,13.16,7,14.67,14.67,0,0,0,2.3,0c8.56-.79,17.23-9.61,17.19-21.71,1-.09,2.05-.22,2.94-.35a2,2,0,0,0-.53-4ZM69.84,83.62C63,83,56.23,75.87,55.7,66.45a3,3,0,0,1,.17-1.24,3.3,3.3,0,0,1,2-2.06c.8-.3,1.68-.58,2.62-.86a43.62,43.62,0,0,1,24.33-.1,3.31,3.31,0,0,1,2.4,3.29C86.86,76.58,77.71,84.34,69.84,83.62Zm48.3,0c-7.87.72-17-7-17.4-18.14a3.31,3.31,0,0,1,2.4-3.29,43.62,43.62,0,0,1,24.33.1c.94.28,1.82.56,2.62.86a3.3,3.3,0,0,1,2,2.06,3,3,0,0,1,.17,1.24C131.75,75.87,125,83,118.14,83.62Z"/><path class="cls-1" d="M140.33,62.85a2,2,0,0,1-1.76,2c-.89.13-2,.26-2.94.35-.7.07-1.32.12-1.73.12s-1.07,0-1.79-.12a3.3,3.3,0,0,0-2-2.06c-.8-.3-1.68-.58-2.62-.86V60.51s4.82.72,6.43.72h.16c.91,0,2.59-.21,4-.39A2,2,0,0,1,140.33,62.85Z"/><path class="cls-1" d="M60.51,60.51v1.78c-.94.28-1.82.56-2.62.86a3.3,3.3,0,0,0-2,2.06c-.72.07-1.37.12-1.79.12s-1,0-1.73-.12c-1-.09-2.05-.22-2.94-.35a2,2,0,0,1-1.76-2h0a2,2,0,0,1,2-2l.27,0c1.39.18,3.07.37,4,.39h.16C55.69,61.23,60.51,60.51,60.51,60.51Z"/><path class="cls-1" d="M90.56,64.14c0-.5,0-1-.08-1.49a3.33,3.33,0,0,0-2.22-2.86l-.37-.12h0a46.8,46.8,0,0,0-17.48-2.4l-.4,0h-.2A47.17,47.17,0,0,0,54.41,61,3.41,3.41,0,0,0,53,62.1a2.3,2.3,0,0,0-.23.4h0a3.28,3.28,0,0,0-.36,1.32c0,.47,0,.93,0,1.39,0,12.1,8.63,20.92,17.19,21.71a14.67,14.67,0,0,0,2.3,0,19.43,19.43,0,0,0,13.16-7,23.11,23.11,0,0,0,5.57-15.17C90.57,64.55,90.57,64.34,90.56,64.14ZM69.84,83.62C63,83,56.23,75.87,55.7,66.45a3,3,0,0,1,.17-1.24,3.3,3.3,0,0,1,2-2.06c.8-.3,1.68-.58,2.62-.86a43.62,43.62,0,0,1,24.33-.1,3.31,3.31,0,0,1,2.4,3.29C86.86,76.58,77.71,84.34,69.84,83.62Z"/><path class="cls-1" d="M135.59,63.82a3.33,3.33,0,0,0-.6-1.72A3.41,3.41,0,0,0,133.57,61a47.17,47.17,0,0,0-15.38-3.66H118a46.94,46.94,0,0,0-18.27,2.5l-.07,0a3.41,3.41,0,0,0-1.46,1.07,3.33,3.33,0,0,0-.69,1.76q-.06.78-.09,1.56v.55A23.11,23.11,0,0,0,103,79.93a19.43,19.43,0,0,0,13.16,7,14.67,14.67,0,0,0,2.3,0c8.56-.79,17.23-9.61,17.19-21.71C135.63,64.75,135.61,64.29,135.59,63.82Zm-17.45,19.8c-7.87.72-17-7-17.4-18.14a3.31,3.31,0,0,1,2.4-3.29,43.62,43.62,0,0,1,24.33.1c.94.28,1.82.56,2.62.86a3.3,3.3,0,0,1,2,2.06,3,3,0,0,1,.17,1.24C131.75,75.87,125,83,118.14,83.62Z"/><path class="cls-1" d="M100.73,59.67v4.1s-1.63.24-3.32.44c-1.2.14-2.44.27-3.11.27s-2.35-.17-3.74-.34l-2.69-.37v-4.1h0c.32,0,4.86.71,6.41.71,1.13,0,3.84-.35,5.35-.56Z"/><path class="cls-1" d="M55.92,109.84v4.31h3v3.91a8.26,8.26,0,0,1-.25,2.09,3.39,3.39,0,0,1-.86,1.6,2.36,2.36,0,0,1-1.77.62,2.31,2.31,0,0,1-1.7-.59,3.25,3.25,0,0,1-.83-1.57,9.06,9.06,0,0,1-.22-2.07V102.73a12.52,12.52,0,0,1,.14-2,3.12,3.12,0,0,1,.68-1.58,2.1,2.1,0,0,1,1.72-.64,2.22,2.22,0,0,1,1.67.55,2.82,2.82,0,0,1,.66,1.46,13.46,13.46,0,0,1,.14,2v2.71h7.19V103.1a13.35,13.35,0,0,0-.9-5.1,7,7,0,0,0-3-3.41,11.63,11.63,0,0,0-5.82-1.23,10.85,10.85,0,0,0-6,1.42,7.61,7.61,0,0,0-3.11,4,18.73,18.73,0,0,0-.9,6.13v11.18a19.56,19.56,0,0,0,.84,6,7.72,7.72,0,0,0,2.84,4.05,9.1,9.1,0,0,0,5.44,1.44,5.79,5.79,0,0,0,3.45-.92,6,6,0,0,0,1.93-2.33l.41,2.76h4.85V109.84Z"/><path class="cls-1" d="M83.2,93.81H74.82L68.53,127.1h6.94l1.16-7h4.89l1.11,7h6.78Zm-5.91,21.86,1.76-13,1.77,13Z"/><path class="cls-1" d="M116.32,93.81h-7.6l-4,19.36-3.65-19.36h-7.9l-.57,33.29H98l.5-22.32,4.11,22.32h4.64L111.06,105l.61,22.15h5.23Z"/><path class="cls-1" d="M128.56,122.13v-9.95h5.8v-5.09h-5.8V98.83h7.6v-5h-15V127.1h15v-5Z"/><path class="cls-1" d="M80.16,133.73A3.28,3.28,0,0,0,78.72,132a6.52,6.52,0,0,0-5.42,0,3.29,3.29,0,0,0-1.42,1.69,7.35,7.35,0,0,0-.43,2.68v5.64a7.42,7.42,0,0,0,.43,2.68,3.32,3.32,0,0,0,1.42,1.72,6.42,6.42,0,0,0,5.42,0,3.31,3.31,0,0,0,1.44-1.72,7.42,7.42,0,0,0,.43-2.68v-5.64A7.35,7.35,0,0,0,80.16,133.73Zm-3,9.16a4.61,4.61,0,0,1-.07.84,1.31,1.31,0,0,1-.32.68,1,1,0,0,1-.77.26,1,1,0,0,1-.76-.26,1.29,1.29,0,0,1-.3-.68,5.73,5.73,0,0,1-.06-.84v-7.31a4.61,4.61,0,0,1,.07-.84,1.32,1.32,0,0,1,.32-.67.93.93,0,0,1,.73-.26,1,1,0,0,1,.77.26,1.32,1.32,0,0,1,.32.67,4.61,4.61,0,0,1,.07.84Z"/><path class="cls-1" d="M87.79,131.65,86.27,142l-1.63-10.31H81.77l2.74,15.18h3.54l2.77-15.18Z"/><path class="cls-1" d="M95.69,144.56V140h2.64V137.7H95.69v-3.76h3.47v-2.29H92.34v15.18h6.85v-2.27Z"/><path class="cls-1" d="M108.07,139.48a3,3,0,0,0,1.16-.89,3.07,3.07,0,0,0,.55-1.26,8.35,8.35,0,0,0,.15-1.67,4.14,4.14,0,0,0-.63-2.46,3.21,3.21,0,0,0-1.75-1.21,9.5,9.5,0,0,0-2.66-.34h-4.18v15.18h3.35V140h1l1.67,6.8h3.47Zm-1.41-2.37a1.33,1.33,0,0,1-.55.73,2,2,0,0,1-1.11.25h-.94V133.9h1.09a1.45,1.45,0,0,1,1.31.54,2.76,2.76,0,0,1,.36,1.52A3.55,3.55,0,0,1,106.66,137.11Z"/><path class="cls-2" d="M171.92,89.84a31,31,0,0,1-4.32-.25,7.23,7.23,0,0,1-2.88-1,4.37,4.37,0,0,1-1.66-2,10.42,10.42,0,0,1-.67-3.4c0-.73,0-1.57-.06-2.53s0-2,0-3,0-2.13.08-3.18.08-2.06.12-3,.1-1.74.14-2.42a9.58,9.58,0,0,1,1.48-4.92,6.82,6.82,0,0,1,3.67-2.6,20,20,0,0,1,6.07-.78,20.93,20.93,0,0,1,4.12.41,13.69,13.69,0,0,1,3.67,1.26,7.16,7.16,0,0,1,2.63,2.25,5.73,5.73,0,0,1,1,3.41,5.3,5.3,0,0,1-.61,2.61,5.83,5.83,0,0,1-1.49,1.75,6.72,6.72,0,0,1-1.7,1c-.56.22-1,.39-1.42.51s-.58.24-.58.35.28.19.84.28a16,16,0,0,1,2.06.51,10.79,10.79,0,0,1,2.91,1.3,5.58,5.58,0,0,1,1.91,2,5.72,5.72,0,0,1,.68,2.85,6,6,0,0,1-.87,3.1A8.86,8.86,0,0,1,185,86.73a9.29,9.29,0,0,1-2.38,1.33,22.7,22.7,0,0,1-3.22,1,30.55,30.55,0,0,1-3.69.6A37.31,37.31,0,0,1,171.92,89.84Zm-3.18-17c1.21,0,2.29,0,3.25,0s1.84-.12,2.64-.22a16.53,16.53,0,0,0,2.27-.47,6.29,6.29,0,0,0,2.68-1.38,3.5,3.5,0,0,0,1-2.7,2.78,2.78,0,0,0-.63-1.8A5,5,0,0,0,178.28,65,8.75,8.75,0,0,0,176,64.2a12.47,12.47,0,0,0-2.5-.25,9.86,9.86,0,0,0-2.21.23,5.67,5.67,0,0,0-1.79.7A2.88,2.88,0,0,0,168.42,66a4.11,4.11,0,0,0-.29,1c-.09.42-.16.88-.23,1.38a14.61,14.61,0,0,0-.14,1.47c0,.49,0,.91,0,1.29a3.1,3.1,0,0,0,.22,1.28A.82.82,0,0,0,168.74,72.89Zm3,12.87a28.29,28.29,0,0,0,4.4-.31,13.87,13.87,0,0,0,3.45-1,6.11,6.11,0,0,0,2.24-1.63,3.42,3.42,0,0,0,.8-2.27,2.35,2.35,0,0,0-.89-1.89,6.32,6.32,0,0,0-2.35-1.18,19.27,19.27,0,0,0-3.2-.64c-1.16-.14-2.32-.23-3.47-.28s-2.18-.07-3.09-.07a1.55,1.55,0,0,0-.75.19,1.51,1.51,0,0,0-.59.65,4.44,4.44,0,0,0-.37,1.3,15.33,15.33,0,0,0-.12,2.13,20,20,0,0,0,.11,2.39,3.45,3.45,0,0,0,.51,1.52,2.27,2.27,0,0,0,1.19.81A7.52,7.52,0,0,0,171.76,85.76Z"/><path class="cls-2" d="M203,89a2.33,2.33,0,0,1-1.85-.64,4,4,0,0,1-.79-2c0-.33-.08-.7-.11-1.11s0-.86-.06-1.32-.05-.94-.07-1.41-.06-.92-.09-1.35a16.64,16.64,0,0,0-.32-2.46,2.66,2.66,0,0,0-1.21-1.69l-2.12-1.42a17.66,17.66,0,0,1-1.89-1.48A11.35,11.35,0,0,1,192.69,72a15.57,15.57,0,0,1-1.34-2.64,16.21,16.21,0,0,1-.85-2.84,13.78,13.78,0,0,1-.29-2.68,3.5,3.5,0,0,1,.41-1.74,2.73,2.73,0,0,1,1.11-1.1,3.28,3.28,0,0,1,1.61-.39,1.82,1.82,0,0,1,1.37.66,6.28,6.28,0,0,1,1.11,2.19c.19.73.42,1.48.7,2.24a20,20,0,0,0,.95,2.22A17.25,17.25,0,0,0,199,70.59a7.6,7.6,0,0,0,1.91,1.89,4,4,0,0,0,4.47,0,10.62,10.62,0,0,0,2.08-1.74,18.19,18.19,0,0,0,2.29-3.15,22.12,22.12,0,0,0,1.6-3.27,12.53,12.53,0,0,1,1.35-2.42,1.7,1.7,0,0,1,1.34-.78,2.71,2.71,0,0,1,1.52.44,3,3,0,0,1,1,1.16,3.45,3.45,0,0,1,.37,1.62,9.38,9.38,0,0,1-.34,2.41,15.88,15.88,0,0,1-1,2.65A18.4,18.4,0,0,1,214.17,72a14.39,14.39,0,0,1-1.82,2.21,18,18,0,0,1-2.28,2c-.77.54-1.47,1-2.12,1.44a5.46,5.46,0,0,0-1,.79,2.84,2.84,0,0,0-.55.81,6.76,6.76,0,0,0-.34,1.11c-.05.33-.1.73-.14,1.21s-.1,1-.14,1.54-.1,1.11-.14,1.67-.1,1.09-.16,1.59a3.66,3.66,0,0,1-.8,2A2.18,2.18,0,0,1,203,89Z"/><path class="cls-2" d="M243.58,90.19a17.14,17.14,0,0,1-3.25-.31,11.06,11.06,0,0,1-2.84-1,8.12,8.12,0,0,1-2.19-1.57,9.19,9.19,0,0,1-1.52-2.3,11.24,11.24,0,0,1-.85-2.69,14.78,14.78,0,0,1-.27-2.78,4.94,4.94,0,0,1,.22-1.56,3.16,3.16,0,0,1,.63-1.16,2.43,2.43,0,0,1,1-.71,3,3,0,0,1,1.17-.23,1.55,1.55,0,0,1,1.11.42,2.88,2.88,0,0,1,.67,1.52,21.08,21.08,0,0,0,.41,2.29,9.34,9.34,0,0,0,.66,1.91,4.73,4.73,0,0,0,1.78,2.12,5,5,0,0,0,2.69.69,6.33,6.33,0,0,0,2.53-.43,4.63,4.63,0,0,0,1.67-1.31,7.08,7.08,0,0,0,1.25-2.45A17.13,17.13,0,0,0,249,77.4c.11-1.21.17-2.49.17-3.83,0-1.1,0-2.14-.06-3.11s-.08-1.87-.13-2.7-.09-1.57-.15-2.24-.1-1.24-.14-1.73-.05-.88-.05-1.19a3.83,3.83,0,0,1,.25-1.47,1.83,1.83,0,0,1,.92-.94,4.44,4.44,0,0,1,1.93-.33,3.25,3.25,0,0,1,1.75.45,3.8,3.8,0,0,1,1.24,1.22,8.14,8.14,0,0,1,.52,1.27,11.5,11.5,0,0,1,.43,1.69c.13.64.23,1.36.32,2.16s.15,1.67.19,2.62.07,2,.07,3.07a41,41,0,0,1-.31,5.45,21.17,21.17,0,0,1-.86,3.92,14.28,14.28,0,0,1-1.25,2.82,13.84,13.84,0,0,1-1.5,2.09,9.42,9.42,0,0,1-4.06,2.77A14.58,14.58,0,0,1,243.58,90.19Z"/><path class="cls-2" d="M271.84,90.1a14,14,0,0,1-5.7-1,9.61,9.61,0,0,1-3.85-3,12.66,12.66,0,0,1-2.18-4.68,25,25,0,0,1-.7-6.2q0-.84.06-1.68c0-.57.1-1.11.17-1.64a9.87,9.87,0,0,1,.31-1.41,4.66,4.66,0,0,1,1.2-2.3,2.77,2.77,0,0,1,1.9-.71,2.4,2.4,0,0,1,1.58.44,2.13,2.13,0,0,1,.71,1.1,5.92,5.92,0,0,1,.19,1.31v2.32c0,.43,0,.85,0,1.26s0,.78,0,1.12a24.36,24.36,0,0,0,.72,5.23,7.08,7.08,0,0,0,2,3.52A5.34,5.34,0,0,0,272.05,85,6.88,6.88,0,0,0,276,84a6.45,6.45,0,0,0,2.28-2.92,19.33,19.33,0,0,0,1.19-4.6c.08-.47.15-.94.2-1.43s.1-1,.14-1.47.08-1,.14-1.5.11-1,.17-1.51a5.14,5.14,0,0,1,.91-2.35,2.29,2.29,0,0,1,1.92-.83,1.94,1.94,0,0,1,1.66.73,4.68,4.68,0,0,1,.75,2.05c.05.57.08,1.14.09,1.7s0,1.14,0,1.71,0,1.14-.05,1.69-.06,1.11-.11,1.67a18,18,0,0,1-1.85,7.2A10.45,10.45,0,0,1,279,88.59,15.38,15.38,0,0,1,271.84,90.1Z"/><path class="cls-2" d="M291.59,89.08a2.47,2.47,0,0,1-1.72-.58,3.72,3.72,0,0,1-.92-1.88c-.05-.4-.08-.86-.1-1.37s0-1.09,0-1.74.06-1.36.12-2.13a20.27,20.27,0,0,1,1.88-7.83,11.38,11.38,0,0,1,4.45-4.89A13.13,13.13,0,0,1,302.09,67a13.64,13.64,0,0,1,6.79,1.6,10.35,10.35,0,0,1,4.34,4.92A20.6,20.6,0,0,1,314.73,82c0,.62,0,1.19,0,1.71s-.06,1-.1,1.44a9,9,0,0,1-.21,1.18,4.32,4.32,0,0,1-1,2.14,2.5,2.5,0,0,1-1.78.65,3.17,3.17,0,0,1-1.7-.38,2,2,0,0,1-.83-1.11,7.57,7.57,0,0,1-.34-1.83c-.05-1.16-.09-2.18-.13-3.07s-.09-1.69-.16-2.39-.15-1.36-.24-2-.21-1.22-.35-1.84a7.11,7.11,0,0,0-1.79-3.6,5.11,5.11,0,0,0-3.73-1.22A5.45,5.45,0,0,0,298.46,73a8.63,8.63,0,0,0-2.23,3.63,14.58,14.58,0,0,0-.58,2c-.16.71-.29,1.44-.39,2.2s-.18,1.55-.25,2.39-.14,1.7-.2,2.62a4.59,4.59,0,0,1-.55,2,2.32,2.32,0,0,1-1.12.95A4.34,4.34,0,0,1,291.59,89.08Z"/><path class="cls-2" d="M322.54,89.21a3,3,0,0,1-1.73-.44,2.34,2.34,0,0,1-.89-1.38,9.14,9.14,0,0,1-.26-2.37c0-.53,0-1.16,0-1.9s.06-1.55.1-2.43.1-1.75.17-2.64.12-1.75.19-2.58.15-1.59.24-2.25.16-1.2.24-1.6A4.26,4.26,0,0,1,322,69.45a3.67,3.67,0,0,1,2.3-.71,2.09,2.09,0,0,1,1.93,1,5.6,5.6,0,0,1,.6,2.85c0,.47,0,1.09,0,1.88s-.08,1.66-.14,2.62-.13,1.94-.2,2.94-.16,2-.26,2.89-.19,1.73-.29,2.43a8.53,8.53,0,0,1-.32,1.59,3.47,3.47,0,0,1-1.22,1.76A3.19,3.19,0,0,1,322.54,89.21Zm1.58-24.08a4.57,4.57,0,0,1-3-.74,2.25,2.25,0,0,1-.81-1.67,2.63,2.63,0,0,1,.86-2,5.62,5.62,0,0,1,2.11-1.21,7.85,7.85,0,0,1,2.5-.42,4.51,4.51,0,0,1,1.67.3,2.65,2.65,0,0,1,1.22.93,2.74,2.74,0,0,1,.45,1.64,2.44,2.44,0,0,1-.69,1.81,4.09,4.09,0,0,1-1.83,1A8.91,8.91,0,0,1,324.12,65.13Z"/><path class="cls-2" d="M346,89.79a22,22,0,0,1-5.18-.6,13.78,13.78,0,0,1-4.46-1.91,9.41,9.41,0,0,1-3.09-3.44,11,11,0,0,1-1.14-5.2,14.57,14.57,0,0,1,1.1-5.87,11.62,11.62,0,0,1,3.05-4.2A13.23,13.23,0,0,1,340.77,66a17.53,17.53,0,0,1,5.49-.84,19.85,19.85,0,0,1,5.16.67A14,14,0,0,1,356,68a10.53,10.53,0,0,1,3.21,3.72,12.52,12.52,0,0,1,.21,10.19,12.42,12.42,0,0,1-2.85,4A14,14,0,0,1,352,88.74,16.35,16.35,0,0,1,346,89.79Zm-.21-5.12a9.84,9.84,0,0,0,4-.73A7.59,7.59,0,0,0,352.46,82a7.81,7.81,0,0,0,1.5-2.61,8.69,8.69,0,0,0,.48-2.81,6.71,6.71,0,0,0-.75-3.3,6.38,6.38,0,0,0-2-2.19,8.76,8.76,0,0,0-2.77-1.22,13.08,13.08,0,0,0-3.13-.38,9.05,9.05,0,0,0-3.94.89,7.2,7.2,0,0,0-3,2.69,8.23,8.23,0,0,0-1.15,4.53,7.53,7.53,0,0,0,.92,3.82,5.79,5.79,0,0,0,2.72,2.41A10.65,10.65,0,0,0,345.77,84.67Z"/><path class="cls-2" d="M368.81,89.17a2.59,2.59,0,0,1-1.2-.27,3.39,3.39,0,0,1-1-.73,5.7,5.7,0,0,1-.77-1.09,14.35,14.35,0,0,1-.77-2,24.46,24.46,0,0,1-.59-2.42q-.24-1.26-.36-2.52c-.08-.83-.11-1.6-.11-2.31a13.34,13.34,0,0,1,1.41-6.4,9.36,9.36,0,0,1,4.08-4,13.9,13.9,0,0,1,6.4-1.37,19.57,19.57,0,0,1,3,.23,12.66,12.66,0,0,1,2.59.69,5.22,5.22,0,0,1,1.8,1.11,2.09,2.09,0,0,1,.66,1.52,2,2,0,0,1-.3,1.15,1.7,1.7,0,0,1-.78.6,3,3,0,0,1-1,.17,8.6,8.6,0,0,1-2.33-.36,12.25,12.25,0,0,0-3.28-.36,5.51,5.51,0,0,0-4.55,1.88,7.89,7.89,0,0,0-1.52,5.1c0,.78,0,1.52.11,2.24s.17,1.41.28,2.06.22,1.27.33,1.82.19,1.05.26,1.49a6.92,6.92,0,0,1,.11,1.06,2.87,2.87,0,0,1-.64,2.09A2.53,2.53,0,0,1,368.81,89.17Z"/></svg>